<?xml version="1.0" standalone="no"?>
<!DOCTYPE svg PUBLIC "-//W3C//DTD SVG 20010904//EN"
 "http://www.w3.org/TR/2001/REC-SVG-20010904/DTD/svg10.dtd">
<svg version="1.0" xmlns="http://www.w3.org/2000/svg"
 width="222.000000pt" height="227.000000pt" viewBox="0 0 222.000000 227.000000"
 preserveAspectRatio="xMidYMid meet">

<g transform="translate(0.000000,227.000000) scale(0.100000,-0.100000)"
fill="#000000" stroke="none">
<path d="M406 2247 c-25 -8 -28 -13 -23 -42 5 -32 4 -33 -41 -45 -26 -7 -61
-12 -79 -11 -24 2 -34 -3 -44 -20 -10 -19 -9 -25 6 -35 16 -12 16 -14 0 -38
-10 -14 -22 -23 -27 -20 -13 8 -28 -15 -28 -44 0 -16 7 -26 20 -29 27 -7 25
-20 -5 -27 -28 -7 -33 -32 -12 -60 11 -15 18 -16 34 -8 25 14 34 6 27 -23 -4
-16 1 -26 21 -39 14 -9 30 -14 36 -10 8 4 7 0 0 -14 -10 -18 -8 -24 14 -38 24
-16 27 -16 45 1 24 22 26 20 33 -27 4 -28 1 -40 -15 -55 -31 -28 -78 -129 -78
-168 0 -20 -7 -50 -16 -67 -10 -20 -14 -45 -11 -68 6 -50 76 -166 107 -180 14
-6 34 -29 44 -53 11 -23 27 -50 35 -60 8 -9 12 -18 10 -20 -2 -2 -16 -11 -31
-20 -56 -35 -38 -155 30 -194 45 -26 90 -108 98 -179 4 -31 23 -97 31 -110 14
-20 53 -35 73 -29 15 5 22 0 29 -18 6 -14 15 -28 20 -32 6 -3 11 -21 11 -38 0
-18 7 -45 15 -61 8 -15 15 -34 15 -41 0 -7 11 -35 24 -62 13 -26 27 -67 31
-91 8 -52 47 -100 110 -136 42 -25 50 -26 203 -26 181 0 206 6 263 67 64 66
86 123 144 363 34 142 37 150 66 150 52 0 70 27 80 120 15 138 26 180 59 213
73 75 63 207 -16 207 -16 0 -24 5 -21 13 2 7 15 10 33 7 36 -6 141 -5 174 2
76 14 173 95 149 124 -7 9 -20 12 -37 7 l-27 -6 28 32 c36 43 35 61 -3 61 -36
0 -36 3 -9 47 29 47 19 67 -31 60 -22 -3 -40 -3 -40 0 0 2 11 19 25 37 37 48
33 59 -20 54 -25 -2 -45 -1 -45 2 0 3 13 21 30 40 49 58 44 64 -46 60 -45 -1
-57 3 -97 33 -48 36 -106 54 -209 64 -36 4 -55 10 -52 17 2 6 -23 48 -56 94
l-61 82 -49 0 c-28 0 -58 4 -68 9 -20 11 -249 40 -337 43 -33 1 -105 -1 -160
-5 -55 -4 -89 -3 -75 1 18 6 25 15 25 32 0 22 -4 25 -37 24 -21 -1 -38 3 -38
7 0 5 5 9 10 9 17 0 11 29 -8 39 -13 7 -23 6 -30 -1 -21 -21 -38 7 -23 36 8
13 10 29 7 35 -11 18 -44 13 -56 -9 -6 -11 -20 -20 -30 -20 -24 0 -26 13 -5
30 12 10 13 16 4 26 -16 19 -38 18 -62 -3 -19 -17 -19 -17 -13 3 9 30 -12 44
-48 31z m756 -311 c20 -9 43 -14 50 -11 7 3 20 0 28 -5 13 -9 13 -11 0 -20 -8
-6 -27 -13 -42 -16 -15 -4 -33 -13 -39 -20 -6 -8 -16 -14 -21 -14 -5 0 -51
-20 -101 -44 -51 -24 -99 -47 -107 -50 -8 -3 -22 -10 -30 -14 -25 -14 -90 -48
-177 -92 -45 -22 -87 -47 -93 -55 -6 -8 -35 -22 -63 -31 -29 -9 -70 -26 -92
-37 -22 -12 -49 -22 -60 -24 -10 -2 -29 -12 -40 -23 -31 -29 -38 -25 -30 23 9
54 49 119 70 111 8 -3 31 3 50 15 20 12 48 21 63 21 49 0 57 12 41 64 -14 49
-20 54 -38 32 -10 -11 -10 -20 -1 -36 10 -19 9 -21 -7 -18 -13 2 -19 14 -21
41 -2 20 -8 37 -13 37 -12 0 -29 -44 -29 -76 0 -13 -5 -24 -11 -24 -23 0 -3
96 25 123 14 15 26 31 26 37 0 5 7 10 16 10 16 0 53 26 104 72 17 16 41 27 57
27 16 0 75 4 133 8 154 12 308 7 352 -11z m-239 -552 c18 -9 50 -34 72 -55
103 -102 123 -116 178 -134 56 -18 59 -17 130 4 90 26 141 27 165 3 39 -42 72
-91 72 -107 0 -3 -16 10 -35 29 -65 65 -163 74 -264 23 -54 -27 -69 -40 -91
-81 -14 -27 -33 -50 -42 -52 -9 -1 -35 20 -58 47 -48 57 -86 80 -139 82 -35 1
-37 3 -37 32 0 16 -3 67 -8 113 -5 60 -4 88 5 98 14 17 13 17 52 -2z m-141
-199 c20 -14 41 -25 47 -25 5 0 13 -5 17 -11 4 -7 1 -10 -7 -7 -8 3 -25 0 -39
-7 -14 -7 -35 -16 -47 -19 -22 -7 -23 -5 -23 43 0 28 3 51 8 51 4 0 24 -11 44
-25z m-99 -132 c-3 -7 -9 -13 -13 -13 -4 0 -11 -11 -14 -25 -4 -14 -13 -25
-21 -25 -12 0 -15 14 -15 65 l0 66 34 -27 c19 -15 32 -33 29 -41z m758 31 c93
-58 81 -206 -21 -259 -112 -58 -230 16 -230 145 0 57 19 89 64 112 79 41 125
41 187 2z m-492 -29 c67 -49 86 -110 56 -182 -23 -55 -43 -72 -103 -89 -53
-16 -56 -15 -103 7 -41 19 -54 32 -75 75 -32 66 -26 109 22 158 58 59 147 73
203 31z m781 -10 c10 -12 9 -21 -4 -48 l-16 -32 0 33 c0 40 -25 44 -33 5 -21
-100 -46 -237 -52 -286 -4 -37 -12 -60 -21 -64 -8 -3 -17 -3 -20 0 -3 2 5 56
16 118 12 63 27 149 34 192 7 45 19 83 27 88 22 13 55 11 69 -6z m-1197 -95
c14 -11 29 -35 33 -52 3 -18 10 -39 14 -48 12 -24 40 -111 56 -168 8 -30 19
-62 25 -73 8 -15 6 -21 -6 -25 -25 -10 -34 6 -50 87 -31 151 -127 338 -117
228 1 -16 0 -29 -3 -29 -8 0 -26 80 -20 90 10 16 40 11 68 -10z m1029 -107
c-22 -95 -42 -189 -68 -323 -9 -47 -21 -89 -25 -94 -5 -6 -9 -23 -9 -39 0 -25
-48 -163 -81 -232 -6 -11 -31 -32 -57 -47 -114 -64 -329 -63 -418 2 -27 20
-40 45 -65 127 -12 38 -25 73 -29 78 -5 6 -16 39 -25 75 -9 36 -23 75 -30 86
-8 12 -21 48 -30 80 -9 33 -23 79 -30 104 -70 229 -78 274 -35 185 31 -64 58
-90 116 -116 38 -16 62 -20 107 -16 97 9 162 65 189 165 13 45 44 59 54 25 11
-38 38 -84 64 -109 46 -47 150 -66 231 -44 46 13 112 83 129 136 15 48 20 57
27 50 3 -3 -4 -45 -15 -93z"/>
<path d="M592 1729 c2 -18 9 -34 16 -37 10 -3 13 5 10 29 -2 18 -9 34 -16 37
-10 3 -13 -5 -10 -29z"/>
<path d="M1321 991 c-36 -36 6 -93 52 -69 24 12 23 64 -2 78 -26 13 -28 13
-50 -9z"/>
<path d="M837 962 c-24 -26 -21 -49 7 -67 33 -22 66 -5 66 33 0 50 -42 69 -73
34z"/>
<path d="M983 684 c-18 -48 128 -84 197 -49 30 15 56 52 46 62 -3 4 -30 1 -58
-6 -39 -9 -65 -10 -98 -2 -62 15 -80 14 -87 -5z"/>
<path d="M1357 684 c-4 -4 -4 -17 -1 -30 5 -20 -2 -27 -53 -52 -116 -58 -224
-68 -341 -32 -72 22 -93 35 -87 53 9 22 -11 40 -31 29 -29 -16 -71 -99 -57
-113 8 -8 16 -7 31 2 17 10 26 10 49 0 45 -21 165 -51 203 -51 44 0 186 25
223 39 15 6 44 22 65 36 21 14 51 25 69 25 43 0 43 22 1 66 -31 32 -57 42 -71
28z"/>
<path d="M1174 316 c-8 -21 3 -36 27 -36 15 0 20 6 17 22 -4 27 -35 37 -44 14z"/>
<path d="M1010 298 c0 -30 20 -38 98 -38 49 0 52 1 52 25 0 21 -5 25 -29 25
-15 0 -49 3 -75 6 -44 6 -46 6 -46 -18z"/>
</g>
</svg>
